<svg width="32" height="32" viewBox="0 0 759 536" fill="none" xmlns="http://www.w3.org/2000/svg">
    <style>
        /* garante que o stroke desenhe por baixo do fill em todos os paths */
        path { paint-order: stroke fill; vector-effect: non-scaling-stroke; }
    </style>

    <path fill-rule="evenodd" clip-rule="evenodd"
        d="M526.732 339.307C541.565 356.807 576.732 395.107 598.732 408.307C626.232 424.807 677.732 445.307 724.232 453.807C598.231 488.207 500.732 391.69 467.732 339.131C489.483 339.189 509.638 339.25 526.732 339.307Z"
        fill="#1D2F3B" stroke="#1D2F3B" />
    <path fill-rule="evenodd" clip-rule="evenodd"
        d="M106.232 394.307C83.2315 392.534 52.7315 391.307 52.7315 391.307C96.3982 374.307 188.132 340.107 205.732 339.307C220.313 338.645 362.656 338.851 467.732 339.131C500.732 391.69 598.231 488.207 724.232 453.807C703.432 479.407 652.232 495.807 629.232 500.807C562.031 517.607 480.732 507.307 449.732 500.807C449.732 500.807 440.732 499.406 412.732 492.307C376.367 481.918 341.304 467.736 306.281 453.57C302.765 452.148 299.249 450.726 295.732 449.307C288.36 446.484 281.907 443.96 275.854 441.593C260.145 435.45 247.127 430.359 227.732 423.807C199.345 414.22 187.732 410.307 154.232 401.807C151.732 401.295 127.232 396.807 106.232 394.307Z"
        fill="#2B383F" stroke="#2B383F" />
    <path fill-rule="evenodd" clip-rule="evenodd"
        d="M47.7316 412.807C154.232 423.807 184.232 427.807 280.232 471.807C280.232 471.807 154.232 497.307 47.7316 412.807Z"
        fill="#1C282F" stroke="#1C282F" />
    <path d="M453.732 316.307L231.03 316.807L244.732 255.807L453.732 256.202V316.307Z"
        fill="#EEBB46" stroke="#EEBB46" />
    <path fill-rule="evenodd" clip-rule="evenodd"
        d="M510.53 316.307H453.732V256.202H497.732L510.53 316.307Z"
        fill="#D1A13A" stroke="#D1A13A" />
    <path fill-rule="evenodd" clip-rule="evenodd"
        d="M540.232 316.307C555.232 335.141 593.632 376.207 617.232 389.807C646.732 406.807 692.732 427.307 748.732 435.307C782.732 450.907 721.232 490.141 686.232 507.807C664.732 517.807 593.132 537.607 526.732 534.807C459.562 531.975 391.654 516.147 329.732 489.807C327.679 490.138 324.988 490.715 321.638 491.432C305.767 494.83 275.123 501.392 227.732 500.015C209.563 499.488 188.934 497.794 165.732 494.307C88.5315 482.707 25.3982 430.807 3.23152 406.807C0.564851 402.974 -2.46848 393.507 6.73152 386.307C18.2315 377.307 167.231 320.807 205.732 316.807C210.15 299.488 214.693 277.483 219.251 255.409C227.587 215.03 235.973 174.415 243.732 161.807C253.332 146.207 354.732 54.3073 404.232 10.3073C406.232 8.1406 413.332 3.40727 425.732 1.80727C438.132 0.207271 512.232 1.1406 547.732 1.80727C553.732 2.30726 568.332 7.10725 578.732 22.3073C589.132 37.5073 632.065 143.641 652.232 194.807C652.065 213.641 641.832 246.907 602.232 229.307C567.032 204.107 541.565 183.474 533.232 176.307L540.232 316.307ZM598.732 408.307C576.732 395.107 541.565 356.807 526.732 339.307C509.638 339.25 489.483 339.189 467.732 339.131C362.656 338.851 220.313 338.645 205.732 339.307C188.132 340.107 96.3982 374.307 52.7315 391.307C52.7315 391.307 83.2315 392.534 106.232 394.307C127.232 396.807 151.732 401.295 154.232 401.807C187.732 410.307 199.345 414.22 227.732 423.807C247.127 430.359 260.145 435.45 275.854 441.593C281.907 443.96 288.36 446.484 295.732 449.307C299.249 450.726 302.765 452.148 306.281 453.57C341.304 467.736 376.367 481.918 412.732 492.307C440.732 499.406 449.732 500.807 449.732 500.807C480.732 507.307 562.031 517.607 629.232 500.807C652.232 495.807 703.432 479.407 724.232 453.807C677.732 445.307 626.232 424.807 598.732 408.307ZM231.03 316.807L453.732 316.307H510.53L497.732 256.202H453.732L244.732 255.807L231.03 316.807ZM47.7316 412.807C154.232 423.807 184.232 427.807 280.232 471.807C280.232 471.807 154.232 497.307 47.7316 412.807ZM268.732 233.307H250.732C253.732 218.474 260.532 186.907 263.732 179.307C263.795 179.158 263.891 178.978 264.015 178.775C264.12 178.603 264.247 178.413 264.394 178.204C270.359 169.769 310.492 131.582 346.89 97.4911C363.844 81.6119 379.988 66.6213 391.491 55.9399L407.732 40.8073C418.732 30.3072 425.232 27.8073 432.732 26.8073L537.732 27.3073C548.532 27.3073 553.565 31.3073 554.732 33.3073L621.232 188.307C623.398 193.307 626.932 204.007 623.732 206.807C620.532 209.607 616.398 207.974 614.732 206.807L532.732 144.807L524.232 60.3073L497.732 233.307H268.732Z"
        fill="#111A20" stroke="#111A20" />
    <path fill-rule="evenodd" clip-rule="evenodd"
        d="M415.232 37.8073L268.732 233.307H250.732C253.732 218.474 260.532 186.907 263.732 179.307C263.795 179.158 263.891 178.978 264.015 178.775C264.12 178.603 264.247 178.413 264.394 178.204C270.359 169.769 310.492 131.582 346.89 97.4911C363.844 81.6119 379.988 66.6213 391.491 55.9399L407.732 40.8073C418.732 30.3072 425.232 27.8073 432.732 26.8073C428.415 27.3828 420.732 31.3073 415.232 37.8073Z"
        fill="#384A55" stroke="#384A55" />
    <path fill-rule="evenodd" clip-rule="evenodd"
        d="M524.232 60.3073L497.732 233.307H268.732L415.232 37.8073C420.732 31.3073 428.415 27.3828 432.732 26.8073L537.732 27.3073C548.532 27.3073 553.565 31.3073 554.732 33.3073L621.232 188.307C623.398 193.307 626.932 204.007 623.732 206.807C620.532 209.607 616.398 207.974 614.732 206.807L532.732 144.807L524.232 60.3073Z"
        fill="#2B383F" stroke="#2B383F" />
</svg>