<svg width="129" height="92" viewBox="0 0 129 92" fill="none" xmlns="http://www.w3.org/2000/svg">
<path fill-rule="evenodd" clip-rule="evenodd" d="M89.3722 57.7239C91.8766 60.7053 97.8141 67.2302 101.529 69.479C106.172 72.29 114.867 75.7824 122.718 77.2305C101.444 83.091 84.9824 66.648 79.4108 57.6939C83.0833 57.7037 86.4862 57.7141 89.3722 57.7239Z" fill="#1D2F3B"/>
<path fill-rule="evenodd" clip-rule="evenodd" d="M18.3758 67.0939C14.4925 66.7918 9.34294 66.5828 9.34294 66.5828C16.7155 63.6866 32.2036 57.8602 35.1752 57.7239C37.6371 57.611 61.6701 57.6462 79.4108 57.6939C84.9824 66.648 101.444 83.091 122.718 77.2305C119.206 81.5918 110.561 84.3858 106.678 85.2376C95.3322 88.0997 81.6057 86.345 76.3717 85.2376C76.3717 85.2376 74.8521 84.9989 70.1247 83.7895C63.9849 82.0195 58.0649 79.6034 52.1518 77.1901C51.5581 76.9478 50.9644 76.7055 50.3706 76.4639C49.126 75.9829 48.0365 75.5529 47.0144 75.1496C44.3623 74.103 42.1643 73.2357 38.8896 72.1196C34.0969 70.4862 32.1361 69.8197 26.48 68.3716C26.0579 68.2844 21.9214 67.5198 18.3758 67.0939Z" fill="#2B383F"/>
<path fill-rule="evenodd" clip-rule="evenodd" d="M8.49876 70.2456C26.48 72.1196 31.5452 72.8011 47.7536 80.2971C47.7536 80.2971 26.48 84.6413 8.49876 70.2456Z" fill="#1C282F"/>
<path d="M77.047 53.8055L39.4465 53.8907L41.7599 43.4985L77.047 43.5658V53.8055Z" fill="#EEBB46"/>
<path fill-rule="evenodd" clip-rule="evenodd" d="M86.6367 53.8055H77.047V43.5658H84.4759L86.6367 53.8055Z" fill="#D1A13A"/>
<path fill-rule="evenodd" clip-rule="evenodd" d="M91.6515 53.8055C94.1841 57.014 100.667 64.0103 104.652 66.3272C109.633 69.2234 117.399 72.7159 126.854 74.0788C132.595 76.7365 122.211 83.4204 116.302 86.4301C112.672 88.1338 100.583 91.507 89.3722 91.03C78.0314 90.5474 66.5659 87.851 56.1111 83.3636C55.7646 83.42 55.3102 83.5182 54.7445 83.6404C52.065 84.2193 46.8911 85.3372 38.8896 85.1027C35.8221 85.0128 32.3391 84.7242 28.4216 84.1302C15.3873 82.154 4.72803 73.3122 0.985452 69.2234C0.535217 68.5704 0.0230751 66.9576 1.57639 65.731C3.51802 64.1977 28.6749 54.5722 35.1752 53.8907C35.9211 50.9402 36.6882 47.1914 37.4577 43.4307C38.8653 36.5516 40.2811 29.6322 41.591 27.4844C43.2119 24.8267 60.3321 9.17028 68.6896 1.67428C69.0272 1.30516 70.226 0.498772 72.3196 0.22619C74.4132 -0.0463916 86.9241 0.112614 92.9178 0.22619C93.9309 0.311371 96.3959 1.12911 98.1518 3.71864C99.9077 6.30817 107.157 24.3894 110.561 33.1064C110.533 36.3149 108.805 41.9823 102.119 38.9839C96.1764 34.6907 91.8766 31.1756 90.4697 29.9546L91.6515 53.8055ZM101.529 69.479C97.8141 67.2302 91.8766 60.7053 89.3722 57.7239C86.4862 57.7141 83.0833 57.7037 79.4108 57.6939C61.6701 57.6462 37.6371 57.611 35.1752 57.7239C32.2036 57.8602 16.7155 63.6866 9.34294 66.5828C9.34294 66.5828 14.4925 66.7918 18.3758 67.0939C21.9214 67.5198 26.0579 68.2844 26.48 68.3716C32.1361 69.8197 34.0969 70.4862 38.8896 72.1196C42.1643 73.2357 44.3623 74.103 47.0144 75.1496C48.0365 75.5529 49.126 75.9829 50.3706 76.4639C50.9644 76.7055 51.5581 76.9478 52.1518 77.1901C58.0649 79.6034 63.9849 82.0195 70.1247 83.7895C74.8521 84.9989 76.3717 85.2376 76.3717 85.2376C81.6057 86.345 95.3322 88.0997 106.678 85.2376C110.561 84.3858 119.206 81.5918 122.718 77.2305C114.867 75.7824 106.172 72.29 101.529 69.479ZM39.4465 53.8907L77.047 53.8055H86.6367L84.4759 43.5658H77.047L41.7599 43.4985L39.4465 53.8907ZM8.49876 70.2456C26.48 72.1196 31.5452 72.8011 47.7536 80.2971C47.7536 80.2971 26.48 84.6413 8.49876 70.2456ZM45.812 39.6654H42.7729C43.2794 37.1383 44.4275 31.7605 44.9678 30.4657C44.9785 30.4402 44.9947 30.4096 45.0157 30.3751C45.0334 30.3458 45.0548 30.3134 45.0797 30.2778C46.0867 28.8408 52.8627 22.3351 59.0082 16.5272C61.8706 13.822 64.5963 11.2681 66.5384 9.44841L69.2805 6.87036C71.1377 5.08154 72.2352 4.65564 73.5014 4.48528L91.2294 4.57047C93.0529 4.57047 93.9027 5.25192 94.0997 5.59265L105.327 31.999C105.693 32.8508 106.29 34.6737 105.75 35.1507C105.209 35.6277 104.511 35.3495 104.23 35.1507L90.3852 24.5882L88.9501 10.1925L84.4759 39.6654H45.812Z" fill="#111A20"/>
<path fill-rule="evenodd" clip-rule="evenodd" d="M70.5468 6.35927L45.812 39.6654H42.7729C43.2794 37.1383 44.4275 31.7605 44.9678 30.4657C44.9785 30.4402 44.9947 30.4096 45.0157 30.3751C45.0334 30.3458 45.0548 30.3134 45.0797 30.2778C46.0867 28.8408 52.8627 22.3351 59.0082 16.5272C61.8706 13.822 64.5963 11.2681 66.5384 9.44841L69.2805 6.87036C71.1377 5.08154 72.2352 4.65564 73.5014 4.48528C72.7727 4.58332 71.4754 5.25191 70.5468 6.35927Z" fill="#384A55"/>
<path fill-rule="evenodd" clip-rule="evenodd" d="M88.9501 10.1925L84.4759 39.6654H45.812L70.5468 6.35927C71.4754 5.25191 72.7727 4.58332 73.5014 4.48528L91.2294 4.57047C93.0529 4.57047 93.9027 5.25192 94.0997 5.59265L105.327 31.999C105.693 32.8508 106.29 34.6737 105.75 35.1507C105.209 35.6277 104.511 35.3495 104.23 35.1507L90.3852 24.5882L88.9501 10.1925Z" fill="#2B383F"/>
</svg>
