<svg width="128" height="47" viewBox="0 0 128 47" fill="none" xmlns="http://www.w3.org/2000/svg">
<path fill-rule="evenodd" clip-rule="evenodd" d="M45.9724 29.7743C47.2684 31.3142 50.3408 34.6842 52.2628 35.8457C54.6654 37.2975 59.1648 39.1013 63.2273 39.8492C52.2192 42.8761 43.7009 34.3835 40.8178 29.7588C42.7182 29.7639 44.479 29.7693 45.9724 29.7743Z" fill="#1D2F3B"/>
<path fill-rule="evenodd" clip-rule="evenodd" d="M9.2348 34.6138C7.22537 34.4578 4.56069 34.3498 4.56069 34.3498C8.37569 32.854 16.3901 29.8447 17.9278 29.7743C19.2017 29.716 31.6378 29.7342 40.8178 29.7588C43.7009 34.3835 52.2192 42.8761 63.2273 39.8492C61.4101 42.1017 56.937 43.5448 54.9275 43.9847C49.0565 45.463 41.9536 44.5567 39.2452 43.9847C39.2452 43.9847 38.4589 43.8614 36.0127 43.2368C32.8356 42.3226 29.7722 41.0747 26.7125 39.8283C26.4052 39.7032 26.098 39.578 25.7908 39.4533C25.1467 39.2048 24.583 38.9827 24.0541 38.7744C22.6817 38.2339 21.5444 37.7859 19.8498 37.2095C17.3698 36.3659 16.3552 36.0216 13.4284 35.2737C13.21 35.2287 11.0695 34.8338 9.2348 34.6138Z" fill="#2B383F"/>
<path fill-rule="evenodd" clip-rule="evenodd" d="M4.12386 36.2416C13.4284 37.2095 16.0494 37.5615 24.4366 41.433C24.4366 41.433 13.4284 43.6768 4.12386 36.2416Z" fill="#1C282F"/>
<path d="M39.5947 27.7506L20.138 27.7946L21.3351 22.4272L39.5947 22.4619V27.7506Z" fill="#EEBB46"/>
<path fill-rule="evenodd" clip-rule="evenodd" d="M44.557 27.7506H39.5947V22.4619H43.4388L44.557 27.7506Z" fill="#D1A13A"/>
<path fill-rule="evenodd" clip-rule="evenodd" d="M47.1519 27.7506C48.4624 29.4077 51.8173 33.0212 53.8791 34.2178C56.4564 35.7137 60.4753 37.5175 65.3678 38.2214C68.3383 39.594 62.9652 43.0462 59.9074 44.6007C58.029 45.4805 51.7736 47.2227 45.9724 46.9764C40.1041 46.7272 34.1711 45.3345 28.7612 43.0168C28.5819 43.046 28.3468 43.0967 28.0541 43.1598C26.6675 43.4588 23.9903 44.0361 19.8498 43.9151C18.2625 43.8686 16.4602 43.7196 14.4331 43.4128C7.68841 42.3921 2.17267 37.8254 0.236041 35.7137C0.00306359 35.3764 -0.261948 34.5434 0.541824 33.9099C1.54654 33.118 14.5642 28.1465 17.9278 27.7946C18.3138 26.2707 18.7107 24.3345 19.1089 22.3922C19.8372 18.8392 20.5699 15.2655 21.2477 14.1561C22.0864 12.7835 30.9454 4.69721 35.27 0.825649C35.4448 0.635004 36.0651 0.218518 37.1484 0.0777341C38.2318 -0.0630498 44.7056 0.0190741 47.8071 0.0777341C48.3313 0.121728 49.6069 0.544079 50.5155 1.88153C51.4241 3.21897 55.1751 12.5576 56.937 17.0598C56.9224 18.7169 56.0283 21.6441 52.5686 20.0954C49.4933 17.8781 47.2684 16.0626 46.5403 15.432L47.1519 27.7506ZM52.2628 35.8457C50.3408 34.6842 47.2684 31.3142 45.9724 29.7743C44.479 29.7693 42.7182 29.7639 40.8178 29.7588C31.6378 29.7342 19.2017 29.716 17.9278 29.7743C16.3901 29.8447 8.37569 32.854 4.56069 34.3498C4.56069 34.3498 7.22537 34.4578 9.2348 34.6138C11.0695 34.8338 13.21 35.2287 13.4284 35.2737C16.3552 36.0216 17.3698 36.3659 19.8498 37.2095C21.5444 37.7859 22.6817 38.2339 24.0541 38.7744C24.583 38.9827 25.1467 39.2048 25.7908 39.4533C26.098 39.578 26.4052 39.7032 26.7125 39.8283C29.7722 41.0747 32.8356 42.3226 36.0127 43.2368C38.4589 43.8614 39.2452 43.9847 39.2452 43.9847C41.9536 44.5567 49.0565 45.463 54.9275 43.9847C56.937 43.5448 61.4101 42.1017 63.2273 39.8492C59.1648 39.1013 54.6654 37.2975 52.2628 35.8457ZM20.138 27.7946L39.5947 27.7506H44.557L43.4388 22.4619H39.5947L21.3351 22.4272L20.138 27.7946ZM4.12386 36.2416C13.4284 37.2095 16.0494 37.5615 24.4366 41.433C24.4366 41.433 13.4284 43.6768 4.12386 36.2416ZM23.4319 20.4474H21.8593C22.1214 19.1422 22.7155 16.3647 22.995 15.696C23.0006 15.6828 23.0089 15.6669 23.0198 15.6491C23.029 15.634 23.0401 15.6173 23.0529 15.5989C23.574 14.8567 27.0803 11.4966 30.2603 8.49695C31.7415 7.09974 33.152 5.78071 34.1569 4.84086L35.5758 3.50934C36.5369 2.58544 37.1047 2.36547 37.76 2.27748L46.9335 2.32148C47.877 2.32148 48.3168 2.67344 48.4187 2.84942L54.2286 16.4879C54.4179 16.9278 54.7266 17.8693 54.447 18.1157C54.1674 18.3621 53.8063 18.2183 53.6607 18.1157L46.4967 12.6603L45.754 5.22515L43.4388 20.4474H23.4319Z" fill="#111A20"/>
<path fill-rule="evenodd" clip-rule="evenodd" d="M36.2311 3.24537L23.4319 20.4474H21.8593C22.1214 19.1422 22.7155 16.3647 22.995 15.696C23.0006 15.6828 23.0089 15.6669 23.0198 15.6491C23.029 15.634 23.0401 15.6173 23.0529 15.5989C23.574 14.8567 27.0803 11.4966 30.2603 8.49695C31.7415 7.09974 33.152 5.78071 34.1569 4.84086L35.5758 3.50934C36.5369 2.58544 37.1047 2.36547 37.76 2.27748C37.3829 2.32812 36.7116 2.67344 36.2311 3.24537Z" fill="#384A55"/>
<path fill-rule="evenodd" clip-rule="evenodd" d="M45.754 5.22515L43.4388 20.4474H23.4319L36.2311 3.24537C36.7116 2.67344 37.3829 2.32812 37.76 2.27748L46.9335 2.32148C47.877 2.32148 48.3168 2.67344 48.4187 2.84942L54.2286 16.4879C54.4179 16.9278 54.7266 17.8693 54.447 18.1157C54.1674 18.3621 53.8063 18.2183 53.6607 18.1157L46.4967 12.6603L45.754 5.22515Z" fill="#2B383F"/>
<path d="M67.4652 20.6776V8.68285H72.7323C73.2803 8.68285 73.7835 8.79548 74.242 9.02073C74.7117 9.24598 75.1143 9.55008 75.4498 9.93301C75.7964 10.3159 76.0593 10.7439 76.2382 11.217C76.4283 11.69 76.5233 12.1743 76.5233 12.6698C76.5233 13.1767 76.4339 13.6666 76.2549 14.1396C76.0872 14.6014 75.8412 15.0069 75.5169 15.356C75.1926 15.7052 74.8124 15.9755 74.3762 16.1669L77.0937 20.6776H74.544L72.0949 16.6569H69.78V20.6776H67.4652ZM69.78 14.6127H72.682C72.9728 14.6127 73.23 14.5282 73.4536 14.3593C73.6773 14.1791 73.8562 13.9425 73.9904 13.6497C74.1246 13.3569 74.1917 13.0303 74.1917 12.6698C74.1917 12.2869 74.1134 11.9547 73.9569 11.6731C73.8003 11.3803 73.599 11.1494 73.353 10.9804C73.1181 10.8115 72.8609 10.727 72.5814 10.727H69.78V14.6127Z" fill="white"/>
<path d="M78.3208 20.6776V11.8251H80.5686V20.6776H78.3208ZM78.3208 10.5919V8.34497H80.5686V10.5919H78.3208Z" fill="white"/>
<path d="M86.6893 20.8466C85.9736 20.8466 85.3305 20.7283 84.7602 20.4918C84.1899 20.244 83.7034 19.9061 83.3008 19.4782C82.8983 19.0389 82.5851 18.5434 82.3615 17.9915C82.149 17.4396 82.0428 16.8596 82.0428 16.2514C82.0428 15.418 82.2273 14.6577 82.5963 13.9707C82.9765 13.2724 83.5133 12.7149 84.2067 12.2982C84.9 11.8815 85.7219 11.6731 86.6725 11.6731C87.623 11.6731 88.4394 11.8815 89.1216 12.2982C89.8037 12.7149 90.3125 13.2611 90.648 13.9369L88.4506 14.6127C88.2605 14.286 88.0089 14.0383 87.6957 13.8693C87.3826 13.6891 87.0359 13.599 86.6557 13.599C86.2308 13.599 85.8394 13.7117 85.4815 13.9369C85.1348 14.1509 84.8609 14.4606 84.6596 14.8661C84.4583 15.2603 84.3576 15.722 84.3576 16.2514C84.3576 16.7695 84.4583 17.2312 84.6596 17.6367C84.872 18.0309 85.1516 18.3463 85.4983 18.5828C85.845 18.808 86.2308 18.9207 86.6557 18.9207C86.9241 18.9207 87.1757 18.8756 87.4106 18.7855C87.6566 18.6954 87.8747 18.5715 88.0648 18.4138C88.2549 18.2562 88.3947 18.076 88.4841 17.8732L90.6816 18.549C90.4803 18.9882 90.1839 19.3824 89.7925 19.7316C89.4123 20.0807 88.9594 20.3567 88.4338 20.5594C87.9194 20.7508 87.3379 20.8466 86.6893 20.8466Z" fill="white"/>
<path d="M98.0699 20.6776L95.5034 16.8596L94.3124 18.0422V20.6776H92.0647V8.34497H94.3124V15.8121L97.8518 11.842H100.234L96.9628 15.5925L100.469 20.6776H98.0699Z" fill="white"/>
<path d="M104.607 20.8466C103.857 20.8466 103.142 20.7227 102.46 20.4749C101.777 20.2271 101.19 19.8611 100.698 19.3768L101.503 17.907C102.029 18.335 102.543 18.6504 103.047 18.8531C103.561 19.0558 104.053 19.1572 104.523 19.1572C104.959 19.1572 105.306 19.0783 105.563 18.9207C105.831 18.763 105.965 18.5265 105.965 18.2111C105.965 17.9971 105.893 17.8338 105.747 17.7212C105.602 17.5973 105.389 17.4903 105.11 17.4002C104.842 17.3101 104.512 17.2087 104.12 17.0961C103.472 16.8821 102.929 16.6737 102.493 16.471C102.057 16.2683 101.727 16.0149 101.503 15.7108C101.291 15.3954 101.185 14.9956 101.185 14.5113C101.185 13.9256 101.33 13.4245 101.621 13.0077C101.923 12.5797 102.337 12.2475 102.862 12.011C103.399 11.7745 104.025 11.6562 104.741 11.6562C105.367 11.6562 105.96 11.7576 106.519 11.9603C107.078 12.1518 107.587 12.4671 108.045 12.9064L107.14 14.3424C106.692 13.9932 106.267 13.7398 105.865 13.5821C105.462 13.4132 105.054 13.3287 104.64 13.3287C104.405 13.3287 104.182 13.3569 103.969 13.4132C103.768 13.4695 103.6 13.5652 103.466 13.7004C103.343 13.8243 103.281 14.0045 103.281 14.241C103.281 14.455 103.337 14.6239 103.449 14.7478C103.572 14.8604 103.751 14.9618 103.986 15.0519C104.232 15.142 104.528 15.2434 104.875 15.356C105.58 15.5587 106.172 15.7671 106.653 15.9811C107.145 16.1951 107.514 16.4598 107.76 16.7751C108.006 17.0792 108.129 17.5016 108.129 18.0422C108.129 18.9207 107.811 19.6077 107.173 20.1032C106.536 20.5988 105.68 20.8466 104.607 20.8466Z" fill="white"/>
<path d="M113.718 20.8466C113.002 20.8466 112.359 20.7283 111.788 20.4918C111.218 20.244 110.732 19.9061 110.329 19.4782C109.938 19.0502 109.636 18.5602 109.423 18.0084C109.211 17.4565 109.105 16.8765 109.105 16.2683C109.105 15.6488 109.211 15.0632 109.423 14.5113C109.636 13.9594 109.938 13.4695 110.329 13.0415C110.732 12.6135 111.218 12.2813 111.788 12.0448C112.359 11.797 113.002 11.6731 113.718 11.6731C114.433 11.6731 115.071 11.797 115.63 12.0448C116.2 12.2813 116.687 12.6135 117.089 13.0415C117.492 13.4695 117.794 13.9594 117.995 14.5113C118.207 15.0632 118.314 15.6488 118.314 16.2683C118.314 16.8765 118.207 17.4565 117.995 18.0084C117.794 18.5602 117.492 19.0502 117.089 19.4782C116.698 19.9061 116.217 20.244 115.647 20.4918C115.076 20.7283 114.433 20.8466 113.718 20.8466ZM111.419 16.2683C111.419 16.7864 111.52 17.2481 111.721 17.6536C111.923 18.0478 112.197 18.3575 112.543 18.5828C112.89 18.808 113.281 18.9207 113.718 18.9207C114.142 18.9207 114.528 18.808 114.875 18.5828C115.222 18.3463 115.496 18.0309 115.697 17.6367C115.909 17.2312 116.016 16.7695 116.016 16.2514C116.016 15.7446 115.909 15.2884 115.697 14.883C115.496 14.4775 115.222 14.1622 114.875 13.9369C114.528 13.7117 114.142 13.599 113.718 13.599C113.281 13.599 112.89 13.7173 112.543 13.9538C112.197 14.1791 111.923 14.4944 111.721 14.8999C111.52 15.2941 111.419 15.7502 111.419 16.2683Z" fill="white"/>
<path d="M128 20.6776H125.752V15.7108C125.752 15.0012 125.629 14.4831 125.383 14.1565C125.137 13.8299 124.796 13.6666 124.36 13.6666C124.058 13.6666 123.75 13.7454 123.437 13.9031C123.135 14.0608 122.861 14.2804 122.615 14.562C122.369 14.8323 122.19 15.1476 122.079 15.5081V20.6776H119.831V11.8251H121.861V13.4639C122.084 13.0809 122.369 12.76 122.716 12.5009C123.063 12.2306 123.46 12.0279 123.907 11.8927C124.366 11.7463 124.846 11.6731 125.35 11.6731C125.898 11.6731 126.345 11.7745 126.692 11.9772C127.049 12.1687 127.318 12.4333 127.497 12.7712C127.687 13.0978 127.815 13.4695 127.883 13.8862C127.961 14.3029 128 14.7253 128 15.1533V20.6776Z" fill="white"/>
<path d="M67.4652 38.2756V26.2808H71.793C73.0902 26.2808 74.1749 26.5511 75.0472 27.0918C75.9195 27.6211 76.5737 28.3419 77.0098 29.2542C77.4459 30.1552 77.664 31.1576 77.664 32.2613C77.664 33.4777 77.4236 34.5364 76.9427 35.4374C76.4618 36.3384 75.7797 37.0367 74.8962 37.5323C74.024 38.0279 72.9895 38.2756 71.793 38.2756H67.4652ZM75.3324 32.2613C75.3324 31.4842 75.1926 30.8028 74.913 30.2172C74.6334 29.6202 74.2308 29.1585 73.7052 28.8318C73.1796 28.494 72.5422 28.325 71.793 28.325H69.78V36.2314H71.793C72.5534 36.2314 73.1964 36.0625 73.722 35.7246C74.2476 35.3755 74.6446 34.9024 74.913 34.3055C75.1926 33.6973 75.3324 33.0159 75.3324 32.2613Z" fill="white"/>
<path d="M83.3307 38.4446C82.6262 38.4446 81.9888 38.3263 81.4184 38.0898C80.8481 37.842 80.3617 37.5098 79.9591 37.093C79.5565 36.6651 79.2434 36.1808 79.0197 35.6402C78.8072 35.0883 78.701 34.5083 78.701 33.9001C78.701 33.0554 78.8855 32.2839 79.2545 31.5856C79.6348 30.8873 80.1715 30.3298 80.8649 29.9131C81.5694 29.4851 82.397 29.2711 83.3475 29.2711C84.3092 29.2711 85.1312 29.4851 85.8133 29.9131C86.4955 30.3298 87.0155 30.8873 87.3734 31.5856C87.7424 32.2726 87.9269 33.0159 87.9269 33.8156C87.9269 33.9507 87.9213 34.0915 87.9101 34.2379C87.8989 34.3731 87.8878 34.4857 87.8766 34.5758H81.083C81.1277 35.0263 81.2563 35.4205 81.4688 35.7584C81.6924 36.0963 81.972 36.3553 82.3075 36.5355C82.6542 36.7045 83.0232 36.789 83.4146 36.789C83.8619 36.789 84.2813 36.682 84.6727 36.468C85.0753 36.2427 85.3492 35.9499 85.4946 35.5895L87.4237 36.1301C87.2112 36.5806 86.9037 36.9804 86.5011 37.3296C86.1097 37.6787 85.6456 37.9546 85.1088 38.1574C84.572 38.3488 83.9793 38.4446 83.3307 38.4446ZM81.0326 33.1398H85.6288C85.5841 32.6893 85.4555 32.3008 85.243 31.9741C85.0417 31.6363 84.7733 31.3772 84.4378 31.197C84.1023 31.0055 83.7277 30.9098 83.314 30.9098C82.9114 30.9098 82.5423 31.0055 82.2068 31.197C81.8825 31.3772 81.6141 31.6363 81.4017 31.9741C81.2004 32.3008 81.0774 32.6893 81.0326 33.1398Z" fill="white"/>
<path d="M91.4157 38.2756L88.1783 29.4231H90.5099L92.7241 36.2146L94.9551 29.4231H97.0855L93.8648 38.2756H91.4157Z" fill="white"/>
</svg>
